<?xml version="1.0" standalone="no"?>
<!DOCTYPE svg PUBLIC "-//W3C//DTD SVG 20010904//EN"
 "http://www.w3.org/TR/2001/REC-SVG-20010904/DTD/svg10.dtd">
<svg version="1.0" xmlns="http://www.w3.org/2000/svg"
 width="267.000000pt" height="267.000000pt" viewBox="0 0 267.000000 267.000000"
 preserveAspectRatio="xMidYMid meet">
<metadata>
Created by potrace 1.14, written by Peter Selinger 2001-2017
</metadata>
<g transform="translate(0.000000,267.000000) scale(0.100000,-0.100000)"
fill="#000000" stroke="none">
<path d="M1964 2289 c-11 -4 -26 -14 -33 -23 -8 -10 -28 -139 -52 -343 -22
-181 -47 -392 -57 -470 l-17 -142 -335 426 c-184 234 -353 441 -375 460 -59
52 -137 85 -214 91 -177 12 -327 -70 -401 -222 -29 -59 -34 -84 -71 -392 -21
-181 -39 -335 -39 -342 0 -7 11 -24 25 -37 31 -32 74 -33 103 -2 19 20 25 58
57 327 20 168 39 316 42 330 28 118 143 198 268 188 100 -8 113 -21 455 -455
557 -705 496 -633 535 -633 44 0 71 26 79 76 13 83 126 1059 126 1089 0 57
-46 93 -96 74z"/>
<path d="M2134 2140 c-12 -5 -24 -17 -28 -27 -8 -19 -31 -201 -91 -713 -20
-168 -41 -318 -47 -334 -25 -63 -127 -88 -180 -43 -14 12 -140 166 -278 342
-545 694 -538 685 -583 705 -103 47 -239 -3 -276 -102 -11 -30 -171 -1362
-171 -1426 0 -22 6 -44 13 -50 28 -23 100 -15 111 14 3 8 38 286 76 617 39
331 76 615 82 630 18 46 84 70 128 47 10 -6 229 -277 486 -603 256 -325 476
-600 488 -609 35 -29 79 -32 129 -10 37 16 47 27 60 63 10 26 47 318 91 719
42 371 78 689 81 706 9 52 -42 94 -91 74z"/>
<path d="M833 1715 c-17 -7 -34 -22 -37 -32 -3 -10 -40 -308 -81 -662 -76
-641 -76 -645 -57 -670 26 -36 80 -40 109 -9 20 21 27 69 83 548 34 289 64
533 68 543 6 15 85 -80 372 -445 201 -255 387 -487 415 -517 69 -74 129 -101
226 -101 109 0 161 21 235 94 44 44 65 75 77 111 15 46 107 780 107 853 0 43
-30 72 -74 72 -65 0 -67 -7 -114 -416 -24 -203 -48 -393 -53 -422 -12 -60 -48
-108 -96 -128 -47 -20 -122 -18 -159 5 -18 11 -230 271 -484 593 -394 500
-476 597 -500 597 -3 0 -19 -6 -37 -14z"/>
</g>
</svg>
