<svg id="Icon_feather-share-2" data-name="Icon feather-share-2" xmlns="http://www.w3.org/2000/svg" width="16.038" height="17.82" viewBox="0 0 16.038 17.82"><path id="Path_213831" data-name="Path 213831" d="M27.846,5.673A2.673,2.673,0,1,1,25.173,3a2.673,2.673,0,0,1,2.673,2.673Z" transform="translate(-11.808 -3)" fill="#767676"></path><path id="Path_213832" data-name="Path 213832" d="M9.846,16.173A2.673,2.673,0,1,1,7.173,13.5,2.673,2.673,0,0,1,9.846,16.173Z" transform="translate(-4.5 -7.263)" fill="#767676"></path><path id="Path_213833" data-name="Path 213833" d="M27.846,26.673A2.673,2.673,0,1,1,25.173,24,2.673,2.673,0,0,1,27.846,26.673Z" transform="translate(-11.808 -11.526)" fill="#767676"></path><path id="Path_213834" data-name="Path 213834" d="M12.885,20.265l6.086,3.546" transform="translate(-7.904 -10.009)" fill="none" stroke="#767676" stroke-linecap="round" stroke-linejoin="round" stroke-width="2"></path><path id="Path_213835" data-name="Path 213835" d="M18.962,9.765l-6.077,3.546" transform="translate(-7.904 -5.747)" fill="none" stroke="#767676" stroke-linecap="round" stroke-linejoin="round" stroke-width="2"></path></svg>